<svg xmlns="http://www.w3.org/2000/svg" viewBox="-55.739985351562495 27.359574243823886 686.47998046875 454.1604262139398"> <g transform="rotate(0 287.4999084472656 210.03115081787107)"><svg xmlns="http://www.w3.org/2000/svg" viewBox="0.5 0.1567389965057373 257 225.34326171875" fill="none" height="225.34315314809436" width="257.00000000000006" y="97.35957424382389" x="158.99990844726562" preserveAspectRatio="xMinYMin" style="overflow: visible;"><path fill-rule="evenodd" clip-rule="evenodd" d="M137.282 2.93922C140.992 -0.770763 147.008 -0.77075 150.718 2.93923L253.546 105.768C256.078 108.299 257.5 111.733 257.5 115.314V216C257.5 221.247 253.247 225.5 248 225.5H227C223.962 225.5 221.5 223.037 221.5 220C221.5 216.962 223.962 214.5 227 214.5H246.5V115.314C246.5 114.651 246.237 114.015 245.768 113.546L144 11.7781L131.889 23.889C129.741 26.0369 126.259 26.0369 124.111 23.889C121.963 21.7411 121.963 18.2587 124.111 16.1108L137.282 2.93922Z" fill="#F09067" style="fill: #aad8d3; fill-opacity: 1;"></path><path fill-rule="evenodd" clip-rule="evenodd" d="M107.282 32.9392C110.992 29.2292 117.008 29.2292 120.718 32.9392L208.546 120.768C211.078 123.299 212.5 126.733 212.5 130.314V216C212.5 221.247 208.247 225.5 203 225.5H182C178.962 225.5 176.5 223.037 176.5 220C176.5 216.962 178.962 214.5 182 214.5H201.5V130.314C201.5 129.651 201.237 129.015 200.768 128.546L114 41.7781L101.889 53.889C99.7412 56.0369 96.2588 56.0369 94.1109 53.889C91.963 51.7411 91.963 48.2587 94.1109 46.1108L107.282 32.9392Z" fill="#F09067" style="fill: #00adb5; fill-opacity: 1;"></path><path fill-rule="evenodd" clip-rule="evenodd" d="M84 71.7781L12.2322 143.546C11.7634 144.015 11.5 144.651 11.5 145.314V214.5H156.5V145.314C156.5 144.651 156.237 144.015 155.768 143.546L84 71.7781ZM77.2825 62.9392C80.9925 59.2292 87.0075 59.2292 90.7175 62.9392L163.546 135.768C166.078 138.299 167.5 141.733 167.5 145.314V216C167.5 221.247 163.247 225.5 158 225.5H10C4.75329 225.5 0.5 221.247 0.5 216V145.314C0.5 141.733 1.92232 138.299 4.45406 135.768L77.2825 62.9392Z" fill="#F09067" style="fill: #393e46; fill-opacity: 1;"></path></svg></g> <svg y="367.11999893188477" viewBox="4.269999980926514 29.469999313354492 546.47998046875 44.400001525878906" x="14.260014648437505" height="44.400001525878906" width="546.47998046875" style="overflow: visible;"><g fill="#393e46" fill-opacity="1" style=""><path d="M28.75 63.36L23.33 63.36L23.33 49.20L9.65 49.20L9.65 63.36L4.27 63.36L4.27 30.72L9.65 30.48L9.65 44.83L23.33 44.83L23.33 30.72L28.75 30.72L28.75 63.36ZM46.42 63.94L46.42 63.94Q40.99 63.89 38.06 60.55Q35.14 57.22 35.14 51.65L35.14 51.65Q35.18 46.18 38.26 42.84Q41.33 39.50 46.80 39.46L46.80 39.46Q52.42 39.46 55.44 42.91Q58.46 46.37 58.46 51.89L58.46 51.89Q58.42 57.36 55.15 60.65Q51.89 63.94 46.42 63.94ZM52.90 51.89L52.90 51.89Q52.90 48.38 51.43 46.25Q49.97 44.11 46.94 44.11L46.94 44.11Q43.92 44.11 42.34 46.06Q40.75 48 40.75 51.60L40.75 51.60Q40.75 55.25 42.10 57.29Q43.44 59.33 46.46 59.33L46.46 59.33Q49.49 59.33 51.17 57.46Q52.85 55.58 52.90 51.89ZM83.14 42.96L83.14 42.96Q84.62 41.33 87.02 40.30Q89.42 39.26 91.39 39.26L91.39 39.26Q95.90 39.26 97.87 41.88Q99.84 44.50 99.84 48.38L99.84 48.38L99.84 63.36L94.37 63.36L94.37 48.72Q94.37 46.46 93.29 45.17Q92.21 43.87 90.05 43.87L90.05 43.87Q88.66 43.87 87.07 44.64Q85.49 45.41 84.19 46.56L84.19 46.56Q84.24 46.99 84.29 47.45Q84.34 47.90 84.34 48.38L84.34 48.38L84.34 63.36L78.86 63.36L78.86 48.72Q78.86 46.46 77.78 45.17Q76.70 43.87 74.59 43.87L74.59 43.87Q73.25 43.87 71.86 44.50Q70.46 45.12 69.22 46.18L69.22 46.18L69.22 63.36L63.79 63.36L63.79 40.08L66.77 40.08L68.16 42.38Q69.70 40.94 71.90 40.10Q74.11 39.26 75.89 39.26L75.89 39.26Q78.58 39.26 80.38 40.25Q82.18 41.23 83.14 42.96ZM126.77 53.18L126.77 53.18L110.64 53.18Q110.98 55.92 112.70 57.65Q114.43 59.38 117.60 59.38L117.60 59.38Q119.42 59.38 120.77 58.94Q122.11 58.51 123.65 57.79L123.65 57.79Q124.08 58.75 124.49 59.76Q124.90 60.77 125.28 61.73L125.28 61.73Q123.70 62.88 121.34 63.41Q118.99 63.94 117.50 63.94L117.50 63.94Q111.55 63.94 108.24 60.60Q104.93 57.26 104.93 51.74L104.93 51.74Q104.93 46.22 108 42.84Q111.07 39.46 116.35 39.46L116.35 39.46Q122.35 39.46 124.56 43.61Q126.77 47.76 126.77 53.18ZM110.74 49.54L121.58 49.54Q121.10 46.94 119.78 45.53Q118.46 44.11 116.21 44.11L116.21 44.11Q113.90 44.11 112.49 45.55Q111.07 46.99 110.74 49.54L110.74 49.54ZM131.38 61.39L132.62 57.07Q134.02 57.79 136.30 58.51Q138.58 59.23 140.74 59.23L140.74 59.23Q143.95 59.23 145.58 58.13Q147.22 57.02 147.22 55.10L147.22 55.10Q147.22 50.74 139.01 48.36Q130.80 45.98 130.80 38.59L130.80 38.59Q130.80 34.99 133.68 32.47Q136.56 29.95 141.79 29.95L141.79 29.95Q144.24 29.95 146.59 30.67Q148.94 31.39 150.72 32.26L150.72 32.26Q150.29 33.36 149.81 34.44Q149.33 35.52 148.90 36.58L148.90 36.58Q147.60 35.95 145.92 35.35Q144.24 34.75 142.13 34.75L142.13 34.75Q139.68 34.75 138 35.64Q136.32 36.53 136.32 38.50L136.32 38.50Q136.32 43.06 144.55 45.48Q152.78 47.90 152.78 55.06L152.78 55.06Q152.78 58.94 149.69 61.46Q146.59 63.98 140.78 63.98L140.78 63.98Q138.72 63.98 135.58 63.14Q132.43 62.30 131.38 61.39L131.38 61.39ZM178.90 53.18L178.90 53.18L162.77 53.18Q163.10 55.92 164.83 57.65Q166.56 59.38 169.73 59.38L169.73 59.38Q171.55 59.38 172.90 58.94Q174.24 58.51 175.78 57.79L175.78 57.79Q176.21 58.75 176.62 59.76Q177.02 60.77 177.41 61.73L177.41 61.73Q175.82 62.88 173.47 63.41Q171.12 63.94 169.63 63.94L169.63 63.94Q163.68 63.94 160.37 60.60Q157.06 57.26 157.06 51.74L157.06 51.74Q157.06 46.22 160.13 42.84Q163.20 39.46 168.48 39.46L168.48 39.46Q174.48 39.46 176.69 43.61Q178.90 47.76 178.90 53.18ZM162.86 49.54L173.71 49.54Q173.23 46.94 171.91 45.53Q170.59 44.11 168.34 44.11L168.34 44.11Q166.03 44.11 164.62 45.55Q163.20 46.99 162.86 49.54L162.86 49.54ZM189.46 63.36L184.03 63.36L184.03 40.08L186.96 40.08Q187.39 40.94 187.85 41.78Q188.30 42.62 188.74 43.44L188.74 43.44Q190.13 42.24 192.19 41.16Q194.26 40.08 196.13 40.08L196.13 40.08L197.23 44.45Q195.50 44.45 193.42 45.41Q191.33 46.37 189.46 48.10L189.46 48.10L189.46 63.36ZM211.78 63.36L206.93 63.36L198.05 40.85L203.62 40.08L209.52 55.54L215.14 40.08L220.75 40.08L211.78 63.36ZM227.14 36.34L227.14 36.34Q225.79 36.34 224.88 35.42Q223.97 34.51 223.97 33.17L223.97 33.17Q223.92 31.82 224.86 30.89Q225.79 29.95 227.14 29.95L227.14 29.95Q228.48 29.95 229.42 30.89Q230.35 31.82 230.35 33.17L230.35 33.17Q230.35 34.51 229.42 35.42Q228.48 36.34 227.14 36.34ZM229.87 63.36L224.40 63.36L224.40 40.08L229.87 40.08L229.87 63.36ZM246.96 44.06L246.96 44.06Q244.03 44.06 242.47 46.25Q240.91 48.43 240.91 51.70L240.91 51.70Q240.91 55.01 242.42 57.17Q243.94 59.33 246.91 59.33L246.91 59.33Q248.78 59.33 250.06 58.92Q251.33 58.51 252.91 57.74L252.91 57.74L254.45 61.68Q252.91 62.83 250.63 63.38Q248.35 63.94 246.86 63.94L246.86 63.94Q241.34 63.94 238.32 60.58Q235.30 57.22 235.30 51.70L235.30 51.70Q235.34 46.22 238.39 42.84Q241.44 39.46 246.96 39.46L246.96 39.46Q248.40 39.46 250.66 40.06Q252.91 40.66 254.54 41.81L254.54 41.81L252.96 45.70Q251.38 44.98 250.10 44.52Q248.83 44.06 246.96 44.06ZM280.18 53.18L280.18 53.18L264.05 53.18Q264.38 55.92 266.11 57.65Q267.84 59.38 271.01 59.38L271.01 59.38Q272.83 59.38 274.18 58.94Q275.52 58.51 277.06 57.79L277.06 57.79Q277.49 58.75 277.90 59.76Q278.30 60.77 278.69 61.73L278.69 61.73Q277.10 62.88 274.75 63.41Q272.40 63.94 270.91 63.94L270.91 63.94Q264.96 63.94 261.65 60.60Q258.34 57.26 258.34 51.74L258.34 51.74Q258.34 46.22 261.41 42.84Q264.48 39.46 269.76 39.46L269.76 39.46Q275.76 39.46 277.97 43.61Q280.18 47.76 280.18 53.18ZM264.14 49.54L274.99 49.54Q274.51 46.94 273.19 45.53Q271.87 44.11 269.62 44.11L269.62 44.11Q267.31 44.11 265.90 45.55Q264.48 46.99 264.14 49.54L264.14 49.54ZM313.58 52.90L311.52 53.18L303.07 41.86L303.07 63.36L297.70 63.36L297.70 30.72L301.06 30.72L312.34 46.32L322.80 30.72L326.16 30.72L326.16 63.36L320.69 63.36L320.69 42.62L313.58 52.90ZM337.44 56.54L337.44 56.54Q337.44 57.70 338.35 58.68Q339.26 59.66 340.90 59.66L340.90 59.66Q342.38 59.66 343.85 58.92Q345.31 58.18 346.51 56.98L346.51 56.98L346.51 52.85L341.33 52.85Q339.41 52.85 338.42 53.95Q337.44 55.06 337.44 56.54ZM334.03 41.57L334.03 41.57Q335.38 40.66 338.02 40.06Q340.66 39.46 342.14 39.46L342.14 39.46Q346.27 39.46 349.10 41.81Q351.94 44.16 351.94 47.81L351.94 47.81L351.94 63.36L349.01 63.36Q348.67 62.88 348.34 62.33Q348.00 61.78 347.66 61.30L347.66 61.30Q346.42 62.35 344.59 63.14Q342.77 63.94 340.99 63.94L340.99 63.94Q336.82 63.94 334.78 61.87Q332.74 59.81 332.74 56.54L332.74 56.54Q332.74 52.99 335.14 51.10Q337.54 49.20 341.42 49.20L341.42 49.20L346.46 49.20Q346.32 47.14 345.41 45.77Q344.50 44.40 342.24 44.40L342.24 44.40Q340.42 44.40 338.62 44.88Q336.82 45.36 335.52 45.98L335.52 45.98Q335.14 44.88 334.75 43.78Q334.37 42.67 334.03 41.57ZM363.60 63.36L358.18 63.36L358.18 40.08L361.10 40.08Q361.54 40.94 361.99 41.78Q362.45 42.62 362.88 43.44L362.88 43.44Q364.27 42.24 366.34 41.16Q368.40 40.08 370.27 40.08L370.27 40.08L371.38 44.45Q369.65 44.45 367.56 45.41Q365.47 46.37 363.60 48.10L363.60 48.10L363.60 63.36ZM380.59 63.36L375.17 63.36L375.17 30L380.59 29.47L380.59 49.10L390.77 39.46L393.84 43.20Q392.21 44.74 390.50 46.27Q388.80 47.81 387.12 49.34L387.12 49.34L396.05 63.36L389.76 63.36L383.33 52.85Q382.66 53.47 381.94 54.12Q381.22 54.77 380.59 55.39L380.59 55.39L380.59 63.36ZM420.43 53.18L420.43 53.18L404.30 53.18Q404.64 55.92 406.37 57.65Q408.10 59.38 411.26 59.38L411.26 59.38Q413.09 59.38 414.43 58.94Q415.78 58.51 417.31 57.79L417.31 57.79Q417.74 58.75 418.15 59.76Q418.56 60.77 418.94 61.73L418.94 61.73Q417.36 62.88 415.01 63.41Q412.66 63.94 411.17 63.94L411.17 63.94Q405.22 63.94 401.90 60.60Q398.59 57.26 398.59 51.74L398.59 51.74Q398.59 46.22 401.66 42.84Q404.74 39.46 410.02 39.46L410.02 39.46Q416.02 39.46 418.22 43.61Q420.43 47.76 420.43 53.18ZM404.40 49.54L415.25 49.54Q414.77 46.94 413.45 45.53Q412.13 44.11 409.87 44.11L409.87 44.11Q407.57 44.11 406.15 45.55Q404.74 46.99 404.40 49.54L404.40 49.54ZM437.18 59.04L438.72 63.02Q438.00 63.50 436.73 63.86Q435.46 64.22 434.40 64.22L434.40 64.22Q430.51 64.22 428.26 62.21Q426.00 60.19 426.00 56.40L426.00 56.40L426.00 44.40L422.83 44.40L422.83 40.22L426.00 40.22L426.00 34.61L431.42 33.50L431.42 40.22L435.65 40.22L437.33 44.40L431.42 44.40L431.42 55.49Q431.42 57.26 432.24 58.44Q433.06 59.62 434.78 59.62L434.78 59.62Q435.41 59.62 436.01 59.45Q436.61 59.28 437.18 59.04L437.18 59.04ZM448.32 45.60L448.32 57.65Q449.38 58.42 450.62 58.87Q451.87 59.33 452.98 59.33L452.98 59.33Q456.38 59.33 457.75 56.90Q459.12 54.48 459.12 51.65L459.12 51.65Q459.12 48.48 457.85 46.18Q456.58 43.87 452.98 43.87L452.98 43.87Q451.87 43.87 450.62 44.35Q449.38 44.83 448.32 45.60L448.32 45.60ZM448.32 73.34L442.90 73.87L442.90 40.08L445.78 40.08L446.98 41.95Q448.51 40.75 450.55 40.01Q452.59 39.26 454.22 39.26L454.22 39.26Q459.36 39.26 462.02 42.79Q464.69 46.32 464.69 51.60L464.69 51.60Q464.69 56.88 461.98 60.41Q459.26 63.94 454.22 63.94L454.22 63.94Q452.88 63.94 451.30 63.46Q449.71 62.98 448.32 62.11L448.32 62.11L448.32 73.34ZM475.73 63.36L470.30 63.36L470.30 30L475.73 29.47L475.73 63.36ZM486.24 56.54L486.24 56.54Q486.24 57.70 487.15 58.68Q488.06 59.66 489.70 59.66L489.70 59.66Q491.18 59.66 492.65 58.92Q494.11 58.18 495.31 56.98L495.31 56.98L495.31 52.85L490.13 52.85Q488.21 52.85 487.22 53.95Q486.24 55.06 486.24 56.54ZM482.83 41.57L482.83 41.57Q484.18 40.66 486.82 40.06Q489.46 39.46 490.94 39.46L490.94 39.46Q495.07 39.46 497.90 41.81Q500.74 44.16 500.74 47.81L500.74 47.81L500.74 63.36L497.81 63.36Q497.47 62.88 497.14 62.33Q496.80 61.78 496.46 61.30L496.46 61.30Q495.22 62.35 493.39 63.14Q491.57 63.94 489.79 63.94L489.79 63.94Q485.62 63.94 483.58 61.87Q481.54 59.81 481.54 56.54L481.54 56.54Q481.54 52.99 483.94 51.10Q486.34 49.20 490.22 49.20L490.22 49.20L495.26 49.20Q495.12 47.14 494.21 45.77Q493.30 44.40 491.04 44.40L491.04 44.40Q489.22 44.40 487.42 44.88Q485.62 45.36 484.32 45.98L484.32 45.98Q483.94 44.88 483.55 43.78Q483.17 42.67 482.83 41.57ZM517.54 44.06L517.54 44.06Q514.61 44.06 513.05 46.25Q511.49 48.43 511.49 51.70L511.49 51.70Q511.49 55.01 513.00 57.17Q514.51 59.33 517.49 59.33L517.49 59.33Q519.36 59.33 520.63 58.92Q521.90 58.51 523.49 57.74L523.49 57.74L525.02 61.68Q523.49 62.83 521.21 63.38Q518.93 63.94 517.44 63.94L517.44 63.94Q511.92 63.94 508.90 60.58Q505.87 57.22 505.87 51.70L505.87 51.70Q505.92 46.22 508.97 42.84Q512.02 39.46 517.54 39.46L517.54 39.46Q518.98 39.46 521.23 40.06Q523.49 40.66 525.12 41.81L525.12 41.81L523.54 45.70Q521.95 44.98 520.68 44.52Q519.41 44.06 517.54 44.06ZM550.75 53.18L550.75 53.18L534.62 53.18Q534.96 55.92 536.69 57.65Q538.42 59.38 541.58 59.38L541.58 59.38Q543.41 59.38 544.75 58.94Q546.10 58.51 547.63 57.79L547.63 57.79Q548.06 58.75 548.47 59.76Q548.88 60.77 549.26 61.73L549.26 61.73Q547.68 62.88 545.33 63.41Q542.98 63.94 541.49 63.94L541.49 63.94Q535.54 63.94 532.22 60.60Q528.91 57.26 528.91 51.74L528.91 51.74Q528.91 46.22 531.98 42.84Q535.06 39.46 540.34 39.46L540.34 39.46Q546.34 39.46 548.54 43.61Q550.75 47.76 550.75 53.18ZM534.72 49.54L545.57 49.54Q545.09 46.94 543.77 45.53Q542.45 44.11 540.19 44.11L540.19 44.11Q537.89 44.11 536.47 45.55Q535.06 46.99 534.72 49.54L534.72 49.54Z" transform="translate(0, 0)"></path></g></svg></svg>